Coordinates
version=1
nRows=12
nColumns=24
inDegrees=yes

Units are S.I. units (second, meters, Newtons, ...)
Angles are in degrees.

endheader
time	pelvis_tilt	pelvis_list	pelvis_rotation	pelvis_tx	pelvis_ty	pelvis_tz	hip_flexion_r	hip_adduction_r	hip_rotation_r	knee_angle_r	ankle_angle_r	subtalar_angle_r	mtp_angle_r	hip_flexion_l	hip_adduction_l	hip_rotation_l	knee_angle_l	ankle_angle_l	subtalar_angle_l	mtp_angle_l	lumbar_extension	lumbar_bending	lumbar_rotation
      1.71500000	     28.23551725	     -0.68511531	      3.13079639	      0.27843676	      0.92189892	      0.01777599	    -34.68387636	      4.55126696	     15.72263543	      7.87856888	     -1.71043304	    -15.63048648	     30.26439698	    -16.75959077	     -1.51049423	     -1.54248578	    -54.10590654	      2.58355479	    -21.71895771	     21.02908151	    -35.29541559	      3.29457684	      1.96829364
      1.72000000	     28.29312076	     -0.55879641	      2.96673396	      0.28367175	      0.92189426	      0.01795385	    -35.31444588	      4.30711622	     15.96683294	      8.27107958	     -1.71174458	    -15.85152325	     30.13953616	    -16.13357785	     -1.14820722	     -1.25768126	    -53.51382095	      3.33437148	    -21.26783345	     21.08207852	    -35.40652774	      3.09420339	      2.07148350
      1.72500000	     28.34586698	     -0.44264632	      2.79108658	      0.28887557	      0.92182241	      0.01812869	    -35.92428445	      4.06616276	     16.20181734	      8.64027051	     -1.68248337	    -16.09319313	     30.00322601	    -15.51912587	     -0.78971312	     -0.98285351	    -52.84527364	      3.99751276	    -20.90161775	     21.12336437	    -35.51482650	      2.89868404	      2.19435471
      1.73000000	     28.40371017	     -0.33148771	      2.60785263	      0.29402145	      0.92170771	      0.01831689	    -36.52131791	      3.82750716	     16.42215218	      8.98272166	     -1.61416558	    -16.30738106	     29.88363254	    -14.92824655	     -0.43007897	     -0.69293577	    -52.09371822	      4.56236025	    -20.59694814	     21.16428741	    -35.63472268	      2.70115091	      2.32337083
      1.73500000	     28.45913960	     -0.26137579	      2.42663559	      0.29907290	      0.92153270	      0.01850304	    -37.09159140	      3.62419659	     16.72050715	      9.29894282	     -1.59053719	    -16.61826980	     29.71077597	    -14.33800406	     -0.12181678	     -0.41305103	    -51.29482272	      5.12291105	    -20.26795979	     21.20562594	    -35.76253023	      2.54259868	      2.46791455
      1.74000000	     28.47506026	     -0.21577340	      2.24631233	      0.30410092	      0.92125614	      0.01864956	    -37.58321268	      3.44625791	     16.95431473	      9.54364205	     -1.40157265	    -16.70570324	     29.67145146	    -13.71929401	      0.17360577	     -0.11119638	    -50.42906151	      5.56479432	    -20.21584928	     21.23423902	    -35.85127727	      2.41193395	      2.61646407
      1.74500000	     28.54552980	     -0.17974350	      2.05078039	      0.30900490	      0.92100001	      0.01881555	    -38.11559307	      3.26719182	     17.23320597	      9.77234700	     -1.24626541	    -16.85802512	     29.61050760	    -13.18309744	      0.45285854	      0.18936947	    -49.47707315	      5.96156316	    -20.08054144	     21.26789746	    -36.01204631	      2.28218236	      2.78912908
      1.75000000	     28.62166599	     -0.22040269	      1.82048034	      0.31375179	      0.92068675	      0.01908472	    -38.64789174	      3.12378575	     17.79722975	     10.04718388	     -1.44638009	    -17.73005381	     29.19567146	    -12.65097562	      0.62693711	      0.42369584	    -48.50166857	      6.38114188	    -19.72741957	     21.31295938	    -36.19586949	      2.19772668	      3.06394122
      1.75500000	     28.67835421	     -0.25987815	      1.61270285	      0.31846373	      0.92032282	      0.01925980	    -39.08873855	      3.01148124	     18.12077996	     10.15297443	     -1.19482639	    -17.81953772	     29.16432491	    -12.12262815	      0.81806192	      0.72955954	    -47.43734506	      6.64638632	    -19.73724865	     21.32220666	    -36.36357668	      2.13135781	      3.27830339
      1.76000000	     28.75692056	     -0.33756252	      1.37617880	      0.32307167	      0.91995343	      0.01948297	    -39.52918943	      2.91246961	     18.53008632	     10.23407765	     -0.96695513	    -17.98140506	     29.11348859	    -11.64089389	      0.95505690	      0.99285631	    -46.30603096	      6.86831189	    -19.76045839	     21.32731572	    -36.56879898	      2.08192518	      3.55425438
      1.76500000	     28.82865615	     -0.47682828	      1.08133298	      0.32747741	      0.91954425	      0.01980505	    -39.95060918	      2.81220838	     19.26894618	     10.35958409	     -1.13260852	    -18.93792560	     28.70044377	    -11.16377003	      1.03113486	      1.22049217	    -45.11348008	      6.89961064	    -19.96621273	     21.30770110	    -36.79278686	      2.05281409	      3.91632728
      1.77000000	     28.89451982	     -0.64547593	      0.83019751	      0.33190728	      0.91907692	      0.02004813	    -40.31332453	      2.78845621	     19.73367628	     10.33846414	     -0.81698239	    -19.06272543	     28.67574753	    -10.69725503	      1.04573053	      1.48171647	    -43.89171116	      7.06560499	    -20.01567069	     21.30727635	    -37.00489070	      2.07707143	      4.25322376
